<svg version="1.1" xmlns="http://www.w3.org/2000/svg" viewBox="0 0 272.60552961627536 362.74609375" width="545.2110592325507" height="725.4921875">
  <!-- svg-source:excalidraw -->
  
  <defs>
    <style class="style-fonts">
      @font-face {
        font-family: "Virgil";
        src: url("https://excalidraw.com/Virgil.woff2");
      }
      @font-face {
        font-family: "Cascadia";
        src: url("https://excalidraw.com/Cascadia.woff2");
      }
    </style>
  </defs>
  <g stroke-linecap="round" transform="translate(10 10) rotate(0 122.10337153792625 52.32027965065561)"><path d="M26.16 0 M26.16 0 C64.69 1.59, 106.35 1.48, 218.05 0 M26.16 0 C72.32 0.07, 121.08 -0.95, 218.05 0 M218.05 0 C235.89 -0.66, 246.04 7.11, 244.21 26.16 M218.05 0 C233.46 -0.91, 242.93 7.82, 244.21 26.16 M244.21 26.16 C244.2 44.75, 244.99 62.3, 244.21 78.48 M244.21 26.16 C244.32 39.33, 244.16 52.01, 244.21 78.48 M244.21 78.48 C245.91 95.46, 236.64 105.03, 218.05 104.64 M244.21 78.48 C244.07 96.92, 237.72 103.38, 218.05 104.64 M218.05 104.64 C142.59 105.5, 69.84 102.14, 26.16 104.64 M218.05 104.64 C165.66 105.01, 110.82 105.26, 26.16 104.64 M26.16 104.64 C8.11 102.78, -1.96 95.35, 0 78.48 M26.16 104.64 C10.66 103.74, -0.77 95.67, 0 78.48 M0 78.48 C1.67 59.96, 1.72 42.23, 0 26.16 M0 78.48 C-0.71 59.34, -0.57 37.97, 0 26.16 M0 26.16 C-0.21 7.41, 8.16 -0.77, 26.16 0 M0 26.16 C-1.58 9.57, 10.32 2.05, 26.16 0" stroke="#000000" stroke-width="1" fill="none"></path></g><g stroke-linecap="round" transform="translate(14.079686828626564 131.225443704081) rotate(0 121.8258749397977 53.5308788448304)"><path d="M6.47 6.95 C6.47 6.95, 6.47 6.95, 6.47 6.95 M6.47 6.95 C6.47 6.95, 6.47 6.95, 6.47 6.95 M6.86 12.59 C7.55 8.99, 10.41 9.29, 16.05 2.03 M6.86 12.59 C9.51 10.11, 11.34 7.74, 16.05 2.03 M3.32 22.76 C9.14 19.11, 10.38 12.01, 21.69 1.63 M3.32 22.76 C10.18 14.29, 16.92 6.6, 21.69 1.63 M3.06 29.16 C10.5 21.19, 16.34 15.89, 27.99 0.48 M3.06 29.16 C11.32 20.93, 19.48 10.93, 27.99 0.48 M3.45 34.8 C11.74 27.15, 18.89 13.97, 32.98 0.84 M3.45 34.8 C9.44 27.84, 16.27 18.73, 32.98 0.84 M3.19 41.2 C15.92 29.23, 22.96 17.21, 38.62 0.45 M3.19 41.2 C17.07 24.36, 32.43 9.49, 38.62 0.45 M2.93 47.6 C18.06 32.56, 30.41 14.13, 43.61 0.81 M2.93 47.6 C18.18 29.98, 33.81 12.27, 43.61 0.81 M3.33 53.24 C17.42 35.98, 31.55 21.8, 48.59 1.17 M3.33 53.24 C14.71 40.39, 24.43 28.92, 48.59 1.17 M3.06 59.64 C21.61 37.55, 37.92 19.53, 54.24 0.77 M3.06 59.64 C22.03 39.7, 39.32 18.37, 54.24 0.77 M3.46 65.28 C17.31 48.54, 31.29 29.61, 59.22 1.13 M3.46 65.28 C17.25 48.83, 32.24 30.86, 59.22 1.13 M3.2 71.68 C23.93 45.09, 45.13 22.01, 64.87 0.74 M3.2 71.68 C25.34 44.13, 48.44 18.11, 64.87 0.74 M2.94 78.08 C20.8 56.96, 40.14 32.38, 69.85 1.1 M2.94 78.08 C20.83 56.28, 38.21 37.32, 69.85 1.1 M0.71 86.74 C19 61.58, 41.76 40.49, 75.5 0.7 M0.71 86.74 C18.99 66.31, 35.68 47.02, 75.5 0.7 M2.41 90.87 C21.13 71.08, 41.92 46.29, 80.48 1.06 M2.41 90.87 C28.6 61.3, 54.34 31.31, 80.48 1.06 M3.46 95.76 C25.16 71.48, 43.83 48.29, 86.13 0.67 M3.46 95.76 C32.61 59.58, 62.8 26.1, 86.13 0.67 M6.48 98.39 C33.07 71.14, 56.9 39.86, 91.11 1.03 M6.48 98.39 C32.4 70.43, 57.28 42.94, 91.11 1.03 M8.85 101.77 C30.16 75.44, 50.85 49.94, 96.76 0.63 M8.85 101.77 C30.86 76.94, 51.9 53.25, 96.76 0.63 M11.86 104.39 C42.98 70.34, 72.61 33.63, 101.74 0.99 M11.86 104.39 C40.67 71.81, 66.75 41.39, 101.74 0.99 M15.54 106.26 C39.84 82.39, 58.45 56.26, 107.39 0.6 M15.54 106.26 C48.18 68.52, 82.46 31.44, 107.39 0.6 M20.53 106.62 C58.22 66.2, 90.85 26.12, 112.37 0.96 M20.53 106.62 C44.53 79.49, 68.54 53.86, 112.37 0.96 M25.51 106.98 C47.68 80.42, 68.85 58.15, 118.02 0.57 M25.51 106.98 C47.68 81.62, 70.25 56.05, 118.02 0.57 M29.19 108.85 C65.73 65.06, 101.76 24.68, 123 0.93 M29.19 108.85 C63.95 71.43, 95.44 32.69, 123 0.93 M34.18 109.21 C59.47 79.89, 82.18 54.6, 128.65 0.53 M34.18 109.21 C57.34 83.94, 79.4 57.87, 128.65 0.53 M39.82 108.81 C77.82 65.88, 112.29 24.43, 133.63 0.89 M39.82 108.81 C71.96 72.11, 103.07 33.67, 133.63 0.89 M44.81 109.17 C76.5 72.95, 108.32 36.16, 139.28 0.5 M44.81 109.17 C76.41 74.53, 108.53 39.15, 139.28 0.5 M50.45 108.78 C85.09 67.3, 120.09 28.59, 144.26 0.86 M50.45 108.78 C78.65 77.13, 104.77 46.4, 144.26 0.86 M55.44 109.14 C88.26 69.4, 123.69 30.97, 149.91 0.46 M55.44 109.14 C84.26 73, 116.12 39.35, 149.91 0.46 M61.08 108.75 C82.58 82.81, 109.13 54.57, 154.9 0.82 M61.08 108.75 C97.85 67.86, 134.11 25.96, 154.9 0.82 M66.07 109.11 C87.16 88.03, 107.14 64.49, 159.88 1.18 M66.07 109.11 C90.85 81.5, 115.09 53.38, 159.88 1.18 M71.71 108.71 C93.79 81.93, 120.08 51.06, 165.53 0.79 M71.71 108.71 C106.83 69.46, 140.83 29.19, 165.53 0.79 M76.7 109.07 C94.93 88.57, 113.08 66.8, 170.51 1.15 M76.7 109.07 C114.34 66.22, 151.61 23.91, 170.51 1.15 M82.34 108.68 C114.39 75.78, 141.64 40.37, 176.16 0.75 M82.34 108.68 C110.23 78.71, 135.8 48.1, 176.16 0.75 M87.33 109.04 C112.87 79.46, 137.33 52.3, 181.14 1.11 M87.33 109.04 C109.07 83.95, 129.89 59.29, 181.14 1.11 M92.31 109.4 C124.36 75.16, 153.76 38.66, 186.79 0.72 M92.31 109.4 C121.29 75.86, 149.78 43.13, 186.79 0.72 M97.96 109 C131.16 70.02, 164.83 31.66, 191.77 1.08 M97.96 109 C123.29 79.63, 147.79 49.76, 191.77 1.08 M102.94 109.36 C128.84 82.01, 150.23 54.89, 197.42 0.68 M102.94 109.36 C136.23 70.27, 169.35 32.82, 197.42 0.68 M108.59 108.97 C131.06 83.63, 156.92 54.81, 202.4 1.04 M108.59 108.97 C135.69 78.45, 162.18 48.15, 202.4 1.04 M113.57 109.33 C135.59 83.28, 153.71 62.99, 208.05 0.65 M113.57 109.33 C138.23 79.57, 164.81 50.24, 208.05 0.65 M119.22 108.93 C151.35 72.31, 184.81 31.24, 213.03 1.01 M119.22 108.93 C141.19 83.8, 162.52 57.86, 213.03 1.01 M124.2 109.29 C149.37 83.68, 174.06 53.57, 218.02 1.37 M124.2 109.29 C144.37 86.4, 164.02 65.16, 218.02 1.37 M129.85 108.9 C156.81 80.96, 182.51 49.49, 223.01 1.73 M129.85 108.9 C161.31 71.94, 193.11 37.77, 223.01 1.73 M134.83 109.26 C165.87 73.16, 194.74 36.97, 227.34 2.84 M134.83 109.26 C160.19 80.16, 185.51 52.9, 227.34 2.84 M140.48 108.86 C163.91 78.89, 192.09 53.37, 231.67 3.96 M140.48 108.86 C160.65 87.25, 178.96 65.27, 231.67 3.96 M145.46 109.22 C171.85 78.15, 200.82 42.55, 234.69 6.58 M145.46 109.22 C168.33 80.99, 194.14 54.25, 234.69 6.58 M151.11 108.83 C186.8 66.68, 221.69 28.17, 238.36 8.45 M151.11 108.83 C179.72 77.26, 208.46 43.93, 238.36 8.45 M156.09 109.19 C172.85 88.46, 190.98 66.3, 240.72 11.83 M156.09 109.19 C187.06 73.04, 217.79 37.94, 240.72 11.83 M161.74 108.8 C189.9 78.25, 218.68 44.61, 242.43 15.97 M161.74 108.8 C190.85 74.52, 221.67 41.21, 242.43 15.97 M166.72 109.16 C194.14 79.77, 218.81 47.13, 243.48 20.85 M166.72 109.16 C184.63 86.65, 202.53 66.9, 243.48 20.85 M172.37 108.76 C188.44 90.76, 202.98 72.92, 243.88 26.5 M172.37 108.76 C191.26 88.46, 208.71 66.58, 243.88 26.5 M177.35 109.12 C200.55 81.18, 223.21 56.04, 243.62 32.89 M177.35 109.12 C197.1 86.15, 216.23 64.83, 243.62 32.89 M183 108.73 C202.87 82.69, 224.9 57.73, 243.35 39.29 M183 108.73 C204.17 86.06, 223.52 62.66, 243.35 39.29 M187.98 109.09 C200.75 95.25, 209.35 82.25, 243.75 44.94 M187.98 109.09 C202.99 92.43, 215.26 77.96, 243.75 44.94 M193.63 108.69 C206.81 89.09, 225.24 74.91, 243.49 51.33 M193.63 108.69 C212 86.84, 231.74 64.49, 243.49 51.33 M198.61 109.05 C216.59 89.55, 234.03 69.79, 243.88 56.98 M198.61 109.05 C216.37 88.87, 232.61 68.79, 243.88 56.98 M204.26 108.66 C212.73 99.17, 224.09 87.66, 243.62 63.37 M204.26 108.66 C219.36 91.17, 235.75 72.77, 243.62 63.37 M209.24 109.02 C219.14 96.79, 231.3 84.58, 244.01 69.02 M209.24 109.02 C218.71 97.67, 227.31 87.18, 244.01 69.02 M214.23 109.38 C223.67 96.67, 235.8 86.93, 243.75 75.42 M214.23 109.38 C219.94 101.47, 227.29 94.68, 243.75 75.42 M219.22 109.74 C225.73 99.12, 234.81 89.46, 244.15 81.06 M219.22 109.74 C224.86 103.33, 231.76 96.01, 244.15 81.06 M225.52 108.59 C230.92 105.09, 233.07 96.39, 243.23 88.21 M225.52 108.59 C230.41 103.27, 234.06 96.83, 243.23 88.21" stroke="#ced4da" stroke-width="0.5" fill="none"></path><path d="M26.77 0 M26.77 0 C74.26 -1.81, 124.87 -2.53, 216.89 0 M26.77 0 C96.03 1.54, 163.57 2.55, 216.89 0 M216.89 0 C232.95 -1.45, 241.9 7.24, 243.65 26.77 M216.89 0 C236.31 0.48, 242.04 8.2, 243.65 26.77 M243.65 26.77 C245.4 43.92, 242.46 64.7, 243.65 80.3 M243.65 26.77 C243.66 47.73, 243.18 68.42, 243.65 80.3 M243.65 80.3 C244.19 99.19, 235.69 108.72, 216.89 107.06 M243.65 80.3 C245.58 99.46, 233.88 106.86, 216.89 107.06 M216.89 107.06 C154.1 105.74, 87.98 105.91, 26.77 107.06 M216.89 107.06 C175.42 106.63, 135.25 105.78, 26.77 107.06 M26.77 107.06 C10.18 105.63, 0.54 99.36, 0 80.3 M26.77 107.06 C10.08 104.83, -1.25 97.04, 0 80.3 M0 80.3 C1.5 65.82, -0.7 50.39, 0 26.77 M0 80.3 C0.64 65.27, -1.17 48.3, 0 26.77 M0 26.77 C0.8 8.12, 7.72 0.5, 26.77 0 M0 26.77 C2.23 9.72, 9.24 -0.87, 26.77 0" stroke="#000000" stroke-width="1" fill="none"></path></g><g stroke-linecap="round" transform="translate(17.47704345424154 258.0272549221266) rotate(0 122.56424308101691 47.359419413936706)"><path d="M23.68 0 M23.68 0 C89.94 -0.19, 156.12 -2.35, 221.45 0 M23.68 0 C83.6 0.84, 144.11 1.28, 221.45 0 M221.45 0 C236.14 0.22, 243.15 8.81, 245.13 23.68 M221.45 0 C236.65 -0.98, 244.6 9.24, 245.13 23.68 M245.13 23.68 C245.26 33.6, 243.55 46.03, 245.13 71.04 M245.13 23.68 C245.08 39.55, 244.28 57.42, 245.13 71.04 M245.13 71.04 C246.37 86.86, 235.33 95.62, 221.45 94.72 M245.13 71.04 C247.15 85.02, 239.21 93.92, 221.45 94.72 M221.45 94.72 C169.04 91.65, 114.08 92.91, 23.68 94.72 M221.45 94.72 C146.99 93.38, 70.9 94.21, 23.68 94.72 M23.68 94.72 C7.98 94.11, -0.81 84.87, 0 71.04 M23.68 94.72 C6.52 94.48, 1.79 88.96, 0 71.04 M0 71.04 C-1.16 54.12, 0.1 35.42, 0 23.68 M0 71.04 C-0.55 54.64, 0.03 38.7, 0 23.68 M0 23.68 C1.29 8.48, 5.95 -0.09, 23.68 0 M0 23.68 C1.06 7.24, 9.64 1.21, 23.68 0" stroke="#000000" stroke-width="1" fill="none"></path></g></svg>